<svg xmlns="http://www.w3.org/2000/svg" xmlns:xlink="http://www.w3.org/1999/xlink" viewBox="0 0 258 258">
  <defs>
    <style>
      .cls-1, .cls-3, .cls-5, .cls-7 {
        fill: #fff;
      }

      .cls-1 {
        opacity: 0;
      }

      .cls-2 {
        fill: #00c1e9;
      }

      .cls-2, .cls-4, .cls-6, .cls-8 {
        stroke: #707070;
      }

      .cls-3 {
        font-size: 18px;
      }

      .cls-3, .cls-5, .cls-7 {
        font-family: Roboto-Medium, Roboto;
        font-weight: 500;
      }

      .cls-4 {
        fill: #ff5050;
      }

      .cls-5 {
        font-size: 16px;
      }

      .cls-6 {
        fill: #dc77ff;
      }

      .cls-7 {
        font-size: 14px;
      }

      .cls-14, .cls-8 {
        fill: none;
      }

      .cls-8 {
        stroke-width: 2px;
      }

      .cls-11, .cls-9 {
        fill: #367fff;
        font-size: 8px;
      }

      .cls-12, .cls-9 {
        font-family: MicrosoftJhengHeiUIRegular, Microsoft JhengHei UI;
      }

      .cls-10, .cls-11 {
        font-family: YuGothicUI-Semibold, Yu Gothic UI;
        font-weight: 600;
      }

      .cls-12 {
        font-weight: 400;
      }

      .cls-13 {
        stroke: none;
      }

      .cls-15 {
        filter: url(#BG);
      }
    </style>
    <filter id="BG" x="0" y="0" width="258" height="258" filterUnits="userSpaceOnUse">
      <feOffset dy="3" input="SourceAlpha"/>
      <feGaussianBlur stdDeviation="3" result="blur"/>
      <feFlood flood-opacity="0.161"/>
      <feComposite operator="in" in2="blur"/>
      <feComposite in="SourceGraphic"/>
    </filter>
  </defs>
  <g id="MVC" transform="translate(-23 -26)">
    <g class="cls-15" transform="matrix(1, 0, 0, 1, 23, 26)">
      <rect id="BG-2" data-name="BG" class="cls-1" width="240" height="240" transform="translate(9 6)"/>
    </g>
    <g id="View">
      <g id="BG-3" data-name="BG" class="cls-2" transform="translate(116 48)">
        <circle class="cls-13" cx="36" cy="36" r="36"/>
        <circle class="cls-14" cx="36" cy="36" r="35.5"/>
      </g>
      <text id="View-2" data-name="View" class="cls-3" transform="translate(133 90)"><tspan x="0" y="0">View</tspan></text>
    </g>
    <g id="Model" transform="translate(60 152)">
      <g id="BG-4" data-name="BG" class="cls-4" transform="translate(124 32)">
        <circle class="cls-13" cx="36" cy="36" r="36"/>
        <circle class="cls-14" cx="36" cy="36" r="35.5"/>
      </g>
      <text id="Model-2" data-name="Model" class="cls-5" transform="translate(138 74)"><tspan x="0" y="0">Model</tspan></text>
    </g>
    <g id="Controller" transform="translate(-60 152)">
      <g id="BG-5" data-name="BG" class="cls-6" transform="translate(108 32)">
        <circle class="cls-13" cx="36" cy="36" r="36"/>
        <circle class="cls-14" cx="36" cy="36" r="35.5"/>
      </g>
      <text id="Controller-2" data-name="Controller" class="cls-7" transform="translate(113 73)"><tspan x="0" y="0">Controller</tspan></text>
    </g>
    <g id="C-M" transform="translate(0 2)">
      <g id="Arrow" transform="translate(-1 10)">
        <path id="Path_78" data-name="Path 78" class="cls-8" d="M132,208c10.2-.053,42,0,42,0l-4-4"/>
        <path id="Path_79" data-name="Path 79" class="cls-8" d="M132,208c10.2-.053,42,0,42,0l-4-4"/>
      </g>
    </g>
    <g id="V-C" transform="translate(-153.892 174.002) rotate(-60)">
      <g id="Arrow-2" data-name="Arrow" transform="translate(307 432) rotate(-180)">
        <path id="Path_78-2" data-name="Path 78" class="cls-8" d="M132,208c10.2-.053,42,0,42,0l-4-4"/>
        <path id="Path_79-2" data-name="Path 79" class="cls-8" d="M132,208c10.2-.053,42,0,42,0l-4-4"/>
      </g>
      <g id="Arrow-3" data-name="Arrow" transform="translate(-1 10)">
        <path id="Path_78-3" data-name="Path 78" class="cls-8" d="M132,208c10.2-.053,42,0,42,0l-4-4"/>
        <path id="Path_79-3" data-name="Path 79" class="cls-8" d="M132,208c10.2-.053,42,0,42,0l-4-4"/>
      </g>
    </g>
    <g id="C-M-2" data-name="C-M" transform="translate(310.115 -88.96) rotate(61)">
      <g id="Arrow-4" data-name="Arrow" transform="translate(307 432) rotate(-180)">
        <path id="Path_78-4" data-name="Path 78" class="cls-8" d="M132,208c10.2-.053,42,0,42,0l-4-4"/>
        <path id="Path_79-4" data-name="Path 79" class="cls-8" d="M132,208c10.2-.053,42,0,42,0l-4-4"/>
      </g>
      <g id="Arrow-5" data-name="Arrow" transform="translate(-1 10)">
        <path id="Path_78-5" data-name="Path 78" class="cls-8" d="M132,208c10.2-.053,42,0,42,0l-4-4"/>
        <path id="Path_79-5" data-name="Path 79" class="cls-8" d="M132,208c10.2-.053,42,0,42,0l-4-4"/>
      </g>
    </g>
    <g id="Event">
      <text id="请求数据" class="cls-9" transform="translate(118.897 169.803) rotate(-60)"><tspan x="0" y="0">请</tspan><tspan class="cls-10" y="0">求数据</tspan></text>
      <text id="用户交互" class="cls-11" transform="translate(95.897 165.803) rotate(-60)"><tspan x="0" y="0">用</tspan><tspan class="cls-12" y="0">户</tspan><tspan y="0">交互</tspan></text>
      <text id="数据存储" class="cls-11" transform="translate(133.433 214.482)"><tspan x="0" y="0">数据存</tspan><tspan class="cls-12" y="0">储</tspan></text>
      <text id="查询数据" class="cls-9" transform="translate(188.969 131.162) rotate(60)"><tspan x="0" y="0">查询</tspan><tspan class="cls-10" y="0">数据</tspan></text>
      <text id="状态通知" class="cls-11" transform="translate(172.969 148.162) rotate(60)"><tspan x="0" y="0">状</tspan><tspan class="cls-12" y="0">态</tspan><tspan y="0">通知</tspan></text>
    </g>
  </g>
</svg>
