<svg xmlns="http://www.w3.org/2000/svg" xmlns:xlink="http://www.w3.org/1999/xlink" viewBox="0 0 258 258">
  <defs>
    <style>
      .cls-1, .cls-3, .cls-5, .cls-7 {
        fill: #fff;
      }

      .cls-1 {
        opacity: 0;
      }

      .cls-2 {
        fill: #00c1e9;
      }

      .cls-2, .cls-4, .cls-6, .cls-8 {
        stroke: #707070;
      }

      .cls-3 {
        font-size: 18px;
      }

      .cls-3, .cls-5, .cls-7 {
        font-family: Roboto-Medium, Roboto;
        font-weight: 500;
      }

      .cls-4 {
        fill: #ff5050;
      }

      .cls-5 {
        font-size: 16px;
      }

      .cls-6 {
        fill: #ff732a;
      }

      .cls-7 {
        font-size: 12px;
      }

      .cls-12, .cls-8 {
        fill: none;
      }

      .cls-8 {
        stroke-width: 2px;
      }

      .cls-9 {
        fill: #367fff;
        font-size: 10px;
        font-family: YuGothicUI-Semibold, Yu Gothic UI;
        font-weight: 600;
      }

      .cls-10 {
        font-family: MicrosoftJhengHeiUIRegular, Microsoft JhengHei UI;
        font-weight: 400;
      }

      .cls-11 {
        stroke: none;
      }

      .cls-13 {
        filter: url(#BG);
      }
    </style>
    <filter id="BG" x="0" y="0" width="258" height="258" filterUnits="userSpaceOnUse">
      <feOffset dy="3" input="SourceAlpha"/>
      <feGaussianBlur stdDeviation="3" result="blur"/>
      <feFlood flood-opacity="0.161"/>
      <feComposite operator="in" in2="blur"/>
      <feComposite in="SourceGraphic"/>
    </filter>
  </defs>
  <g id="MVVM" transform="translate(-23 -26)">
    <g class="cls-13" transform="matrix(1, 0, 0, 1, 23, 26)">
      <rect id="BG-2" data-name="BG" class="cls-1" width="240" height="240" transform="translate(9 6)"/>
    </g>
    <g id="View">
      <g id="BG-3" data-name="BG" class="cls-2" transform="translate(116 48)">
        <circle class="cls-11" cx="36" cy="36" r="36"/>
        <circle class="cls-12" cx="36" cy="36" r="35.5"/>
      </g>
      <text id="View-2" data-name="View" class="cls-3" transform="translate(133 90)"><tspan x="0" y="0">View</tspan></text>
    </g>
    <g id="Model" transform="translate(60 152)">
      <g id="BG-4" data-name="BG" class="cls-4" transform="translate(124 32)">
        <circle class="cls-11" cx="36" cy="36" r="36"/>
        <circle class="cls-12" cx="36" cy="36" r="35.5"/>
      </g>
      <text id="Model-2" data-name="Model" class="cls-5" transform="translate(138 74)"><tspan x="0" y="0">Model</tspan></text>
    </g>
    <g id="Presenter" transform="translate(-60 152)">
      <g id="BG-5" data-name="BG" class="cls-6" transform="translate(108 32)">
        <circle class="cls-11" cx="36" cy="36" r="36"/>
        <circle class="cls-12" cx="36" cy="36" r="35.5"/>
      </g>
      <text id="ViewModel" class="cls-7" transform="translate(114 73)"><tspan x="0" y="0">ViewModel</tspan></text>
    </g>
    <g id="M-P" transform="translate(0 2)">
      <g id="Arrow" transform="translate(2 10)">
        <path id="Path_79" data-name="Path 79" class="cls-8" d="M123.237,208c10.2-.053,50.763,0,50.763,0l-4-4"/>
      </g>
      <g id="Arrow-2" data-name="Arrow" transform="translate(302 432) rotate(180)">
        <path id="Path_79-2" data-name="Path 79" class="cls-8" d="M123.764,208c10.2-.053,50.236,0,50.236,0l-4-4"/>
      </g>
    </g>
    <g id="V-C" transform="translate(-153.892 174.002) rotate(-60)">
      <g id="Arrow-3" data-name="Arrow" transform="translate(10.562 16.026)">
        <path id="Path_79-3" data-name="Path 79" class="cls-8" d="M170,204l4,4-60.976.806,4.675,4.633"/>
      </g>
    </g>
    <g id="Event">
      <text id="双向绑定" class="cls-9" transform="translate(119.897 174.803) rotate(-60)"><tspan x="0" y="0">双向</tspan><tspan class="cls-10" y="0">绑</tspan><tspan y="0">定</tspan></text>
      <text id="数据查询" class="cls-9" transform="translate(129.433 214.482)"><tspan x="0" y="0">数据</tspan><tspan class="cls-10" y="0">查询</tspan></text>
      <text id="数据返回" class="cls-9" transform="translate(135.433 238.482)"><tspan x="0" y="0">数据返回</tspan></text>
    </g>
  </g>
</svg>
